<?xml version="1.0"?>
<svg xmlns="http://www.w3.org/2000/svg" id="Capa_1" enable-background="new 0 0 512.001 512.001" height="512px" viewBox="0 0 512.001 512.001" width="512px" class=""><g><g><path d="m327.001 0h-142c-102.009 0-185 82.991-185 185v54.364c0 40.92 13.627 80.736 38.527 112.998l-38.008 140.727c-1.55 5.737.434 11.848 5.057 15.581 2.725 2.2 6.063 3.331 9.426 3.33 2.344 0 4.701-.549 6.871-1.667l166.766-85.969h138.361c102.009 0 185-82.991 185-185v-54.364c0-102.009-82.991-185-185-185zm155 239.364c0 85.467-69.533 155-155 155h-142c-2.391 0-4.748.572-6.873 1.667l-139.782 72.059 31.026-114.875c1.421-4.738.443-10.02-2.902-13.986-23.518-27.882-36.47-63.348-36.47-99.865v-54.364c0-85.467 69.533-155 155-155h142c85.467 0 155 69.533 155 155v54.364z" data-original="#000000" class="active-path" data-old_color="#000000" fill="#FFFFFF"/><path d="m406.71 161.568c-2.008-.395-45.558-8.726-86.344 1.979-21.465-32.274-53.024-53.757-55.027-55.101-5.056-3.392-11.659-3.392-16.715 0-2.003 1.344-33.558 22.825-55.023 55.095-40.781-10.697-84.315-2.368-86.322-1.973-5.974 1.176-10.645 5.846-11.821 11.819-.71 3.607-16.885 88.83 27.313 133.027 19.073 19.073 47.575 29.274 84.715 30.318 9.106.256 89.912.256 99.017 0 37.14-1.044 65.642-11.245 84.715-30.318 44.198-44.198 28.024-129.421 27.314-133.027-1.177-5.974-5.848-10.643-11.822-11.819zm-149.729-21.953c11.195 8.888 31.003 26.472 43.008 47.815.356.802.773 1.557 1.247 2.265 5.342 10.094 8.855 20.97 8.855 32.129 0 35.894-36.394 68.382-53.122 81.417-6.004-4.677-14.551-11.887-23.117-20.99-13.676-14.534-29.979-36.815-29.979-60.427 0-11.161 3.514-22.04 8.858-32.135.475-.708.892-1.464 1.248-2.267 12.007-21.342 31.814-38.924 43.002-47.807zm-112.997 145.587c-25.374-25.374-23.026-74.356-20.577-95.681 12.555-1.435 34.697-2.809 56.082 1.527-3.508 9.745-5.616 20.06-5.616 30.776 0 34.615 21.958 64.737 42.107 85.095-2.534-.045-5.093-.102-7.652-.174-20.09-.566-47.562-4.762-64.344-21.543zm247.882-64.35c-.74 20.122-5.134 47.621-21.862 64.35-16.782 16.782-44.254 20.977-64.345 21.542-2.567.072-5.136.129-7.678.175 20.15-20.358 42.108-50.48 42.108-85.095 0-10.715-2.108-21.027-5.615-30.771 21.406-4.344 43.572-2.965 56.122-1.53.879 7.621 1.731 18.808 1.27 31.329z" data-original="#000000" class="active-path" data-old_color="#000000" fill="#FFFFFF"/></g></g> </svg>
