<?xml version="1.0"?>
<svg xmlns="http://www.w3.org/2000/svg" height="512px" viewBox="0 -31 512 512" width="512px" class=""><g><path d="m497 299.476562h-15.671875c19.9375-31.144531 30.671875-67.4375 30.671875-105 0-8.285156-6.714844-15-15-15h-222.867188l-145.269531-116.441406c7.175781-16.46875 4.054688-36.390625-9.398437-49.84375-17.585938-17.585937-46.054688-17.589844-63.640625 0l-42.429688 42.425782c-17.542969 17.546874-17.542969 46.09375 0 63.640624 13.144531 13.144532 32.390625 16.398438 48.5625 9.945313l32.917969 50.273437h-79.875c-8.285156 0-15 6.714844-15 15 0 92.039063 64.101562 169.378907 150 189.75v50.25c0 8.285157 6.714844 15 15 15h242c57.898438 0 105-47.101562 105-105v-30c0-8.285156-6.714844-15-15-15zm-87.425781 45c0 20.035157-7.800781 38.867188-21.96875 53.035157l-10.605469 10.605469-10.605469-10.605469c-14.167969-14.167969-21.96875-33-21.96875-53.035157 0-5.101562.511719-10.125 1.503907-15.015624.019531-.09375.042968-.1875.0625-.28125 2.929687-14.199219 9.914062-27.246094 20.402343-37.734376l10.605469-10.605468 10.605469 10.605468c10.488281 10.484376 17.476562 23.535157 20.402343 37.730469.019532.097657.042969.191407.0625.285157.992188 4.890624 1.503907 9.914062 1.503907 15.015624zm-64.394531 74.246094.726562.726563c-40.851562-.589844-73.90625-33.984375-73.90625-74.972657v-15h15c9.582031 0 19.054688 1.839844 27.867188 5.359376-.289063 3.1875-.441407 6.402343-.441407 9.640624 0 28.046876 10.921875 54.414063 30.753907 74.246094zm-310.570313-320.679687c-5.847656-5.847657-5.847656-15.363281 0-21.214844l42.425781-42.425781c5.863282-5.863282 15.351563-5.863282 21.214844 0 5.847656 5.851562 5.847656 15.367187 0 21.214844 0 0-42.410156 42.40625-42.433594 42.433593-5.847656 5.839844-15.359375 5.839844-21.207031-.007812zm51.046875 12.59375 24.304688-24.304688 116.203124 93.144531h-95.429687zm-54.980469 98.839843h450.648438c-3.117188 34.40625-16.917969 66.890626-39.6875 93.117188-3.222657.800781-6.40625 1.753906-9.535157 2.851562-5.210937-13.03125-13.058593-24.992187-23.28125-35.214843l-21.214843-21.210938c-2.8125-2.816406-6.628907-4.394531-10.605469-4.394531s-7.792969 1.578125-10.605469 4.394531l-21.214843 21.210938c-10.222657 10.222656-18.070313 22.1875-23.28125 35.214843-11.160157-3.921874-22.972657-5.96875-34.898438-5.96875h-30c-8.28125 0-15 6.714844-15 15v30c0 5.09375.371094 10.097657 1.078125 15h-48.078125c-85.929688 0-156.726562-66.015624-164.324219-150zm149.324219 210v-30.570312c12.601562.960938 17.457031.414062 72.144531.570312 5.355469 11.242188 12.652344 21.386719 21.453125 30zm302-75c0 40.988282-33.054688 74.382813-73.90625 74.972657l.726562-.726563c19.832032-19.832031 30.753907-46.199218 30.753907-74.246094 0-3.238281-.152344-6.453124-.441407-9.640624 8.8125-3.519532 18.285157-5.359376 27.867188-5.359376h15zm0 0" data-original="#000000" class="active-path" data-old_color="#000000" fill="#FFFFFF"/></g> </svg>
